<svg width="147" height="47" viewBox="0 0 147 47" fill="none" xmlns="http://www.w3.org/2000/svg">
<path d="M37.3334 21.6714V9.2269H40.0568V21.6714H37.3334Z" fill="black"/>
<path d="M52.0095 9.2269H54.7329V21.6714H50.837L45.3523 12.7446H45.0497V21.6714H42.3263V9.2269H45.9953H46.2223L51.6691 18.1536H51.9717L52.0095 9.2269Z" fill="black"/>
<path d="M56.3217 9.2269H68.4257V11.6855H63.7354V21.6714H61.012V11.6855H56.3217V9.2269Z" fill="black"/>
<path d="M80.3027 9.2269V11.6855H72.7755V14.2198H80.3027V16.6785H72.7755V19.2127H80.3027V21.7092H70.0521V9.2269H80.3027Z" fill="black"/>
<path d="M91.4233 16.9054L93.8063 21.6714H90.856L88.8512 17.5106C88.5865 17.5106 88.3595 17.5106 88.1704 17.5106H85.2957V21.6714H82.5723V9.2269H85.2957H88.6621C90.1751 9.2269 93.5037 9.2269 93.5037 13.3877C93.5037 15.5437 92.5581 16.338 91.4233 16.9054ZM90.9695 13.3877C90.9695 11.6477 89.343 11.6477 88.5108 11.6477H85.2957V15.1276H88.473C89.2295 15.1276 90.9695 15.1276 90.9695 13.3877Z" fill="black"/>
<path d="M48.2271 31.6951C48.2271 36.3476 44.1042 36.1584 42.8938 36.1584H40.0191V39.6384H37.2957V27.1939H40.0191H42.8938C44.4068 27.2317 48.2271 27.2317 48.2271 31.6951ZM45.6928 31.6951C45.6928 29.539 43.9529 29.539 43.0451 29.539H40.0191V33.8133H43.0073C43.7259 33.8511 45.6928 33.9646 45.6928 31.6951Z" fill="black"/>
<path d="M58.8181 34.8724L61.2011 39.6384H58.2507L56.246 35.4776C55.9812 35.4776 55.7543 35.4776 55.5652 35.4776H52.6904V39.6384H49.967V27.1939H52.6904H56.0569C57.5699 27.1939 60.8985 27.1939 60.8985 31.3546C60.8985 33.5485 59.9529 34.305 58.8181 34.8724ZM58.402 31.3546C58.402 29.6147 56.7756 29.6147 55.9056 29.6147H52.6904V33.0946H55.8678C56.6621 33.0946 58.402 33.1324 58.402 31.3546Z" fill="black"/>
<path d="M75.4612 33.3596C75.4612 37.4447 72.6999 39.6764 69.0687 39.6764C65.4375 39.6764 62.6763 37.5204 62.6763 33.3596C62.6763 29.2745 65.4375 27.0428 69.0687 27.0428C72.6999 27.0428 75.4612 29.2366 75.4612 33.3596ZM72.8134 33.3596C72.8134 30.9388 71.2248 29.804 69.0687 29.804C66.9127 29.804 65.324 30.901 65.324 33.3596C65.324 35.8182 66.9127 36.9152 69.0687 36.9152C71.2248 36.9152 72.8134 35.7426 72.8134 33.3596Z" fill="black"/>
<path d="M76.7094 27.2319H88.8134V29.6906H84.1231V39.6764H81.3997V29.6906H76.7094V27.2319Z" fill="black"/>
<path d="M102.809 33.3596C102.809 37.4447 100.048 39.6764 96.4164 39.6764C92.7852 39.6764 90.0239 37.5204 90.0239 33.3596C90.0239 29.2745 92.7852 27.0428 96.4164 27.0428C100.048 27.0428 102.809 29.2366 102.809 33.3596ZM100.161 33.3596C100.161 30.9388 98.5724 29.804 96.4164 29.804C94.2603 29.804 92.6717 30.901 92.6717 33.3596C92.6717 35.8182 94.2603 36.9152 96.4164 36.9152C98.5724 36.9152 100.161 35.7426 100.161 33.3596Z" fill="black"/>
<path d="M114.081 34.9483H116.918C116.691 37.7473 114.27 39.6764 110.79 39.6764C107.196 39.6764 104.473 37.5204 104.473 33.3596C104.473 29.2745 107.196 27.0428 110.79 27.0428C114.27 27.0428 116.766 29.1232 116.918 31.7709H114.118C113.74 30.4471 112.795 29.804 110.79 29.804C108.672 29.804 107.196 30.901 107.196 33.3596C107.196 35.8182 108.672 36.9152 110.79 36.9152C112.908 36.9152 113.74 36.1587 114.081 34.9483Z" fill="black"/>
<path d="M131.253 33.3596C131.253 37.4447 128.492 39.6764 124.861 39.6764C121.23 39.6764 118.468 37.5204 118.468 33.3596C118.468 29.2745 121.23 27.0428 124.861 27.0428C128.492 27.0428 131.253 29.2366 131.253 33.3596ZM128.606 33.3596C128.606 30.9388 127.017 29.804 124.861 29.804C122.705 29.804 121.116 30.901 121.116 33.3596C121.116 35.8182 122.705 36.9152 124.861 36.9152C127.017 36.9152 128.606 35.7426 128.606 33.3596Z" fill="black"/>
<path d="M135.944 37.2178H143.471V39.6764H133.22V27.2319H135.944V37.2178Z" fill="black"/>
<path d="M141.92 27.3455H144V27.7616H143.206V29.5016H142.752V27.7616H141.958L141.92 27.3455Z" fill="black"/>
<path d="M146.989 27.3455V29.5016H146.535V27.9129H146.497L146.081 29.5016H145.4L144.984 27.9129H144.946V29.5016H144.454V27.3455H145.249L145.665 29.0477H145.703L146.119 27.3455H146.989Z" fill="black"/>
<path d="M24.3972 23.6763C24.1703 22.882 23.3381 22.3903 22.5438 22.6172C22.3168 22.6929 22.0899 22.8064 21.9386 22.9577L21.9008 22.9955C21.4847 23.3737 21.2956 23.9789 21.4847 24.5463C21.7116 25.3785 21.8629 26.2484 21.8251 27.0806V33.8513C21.8251 38.7307 18.2317 42.9672 13.3523 43.4589C8.20806 43.9506 3.63122 40.1681 3.13949 35.0239C3.10166 34.7213 3.10166 34.4565 3.10166 34.1539V27.3075C3.10166 22.6929 6.3168 18.6456 10.8558 17.8891C12.5958 17.5865 14.3357 17.7756 15.9622 18.4565C16.4918 18.6834 17.097 18.5699 17.513 18.1917L17.5509 18.1539C18.1939 17.5865 18.2317 16.6409 17.7022 16.0356C17.5509 15.8465 17.3617 15.733 17.1348 15.6574C15.1301 14.8252 12.8984 14.5226 10.7423 14.8252C4.53902 15.6574 0 21.142 0 27.3832V33.8513C0 40.8111 5.67377 46.7119 12.6336 46.5984C19.4043 46.4849 24.8511 40.9624 24.8511 34.1917V27.0806C24.8511 25.9458 24.6998 24.7733 24.3972 23.6763ZM2.98819 16.5652C3.44209 16.1491 3.59339 15.5817 3.44209 15.0144C3.06384 13.6905 2.98819 12.291 3.21514 10.9292C4.04729 5.82285 8.88891 2.38076 13.9953 3.21291C19.1017 4.04507 22.5438 8.88669 21.7116 13.9931C21.0308 18.116 17.6643 21.2933 13.5036 21.7851C11.9527 21.9742 10.3641 21.7472 8.92674 21.142C8.39718 20.9151 7.79198 21.0286 7.3759 21.4068H7.33808C6.69505 21.9742 6.65723 22.9198 7.18678 23.525C7.33808 23.7142 7.5272 23.8276 7.75416 23.9033C9.91019 24.8111 12.2932 25.0759 14.6005 24.6598C21.3712 23.4494 25.8724 17.0191 24.6998 10.2484C23.5272 3.47769 17.0591 -0.985679 10.2884 0.186901C3.51774 1.39731 -0.983453 7.82758 0.226952 14.5983C0.302602 15.0144 0.416077 15.4683 0.529553 15.8843C0.756504 16.6787 1.62648 17.1326 2.42081 16.9056C2.60994 16.83 2.79906 16.7165 2.98819 16.5652Z" fill="black"/>
</svg>
